<svg xmlns="https://www.w3.org/2000/svg" xmlns:xlink="https://www.w3.org/1999/xlink" width="1723" height="302" version="1.1" xml:space="preserve" style="fill-rule: evenodd; clip-rule: evenodd; stroke-linecap: round; stroke-linejoin: round; stroke-miterlimit: 1.5;"><rect id="backgroundrect" width="100%" height="100%" x="0" y="0" fill="none" stroke="none" class=""/>
    
<g class="currentLayer"><title>Layer 1</title>
        <path d="M-9.86017312243348e-9,160.71620837832643 C35.973959270139844,105.87474597832642 78.71159891013984,31.438261058326418 93.48249279013987,38.04743729832637 C98.17311787013983,40.3154977783264 104.55878815013983,37.21191501832641 97.91661103013985,71.91834049832642 C95.8150549901398,82.89863329832644 92.60346935013983,97.56752445832637 87.37132983013983,117.51055625832646 C87.37132983013983,117.51055625832646 142.07028843013984,22.153013458326427 155.93215807013985,3.0395037783264343 C158.62922999013983,-0.6790953816736192 168.45599203013984,-1.2596108616735933 170.53804755013988,2.835498338326431 C172.83310875013984,7.352118778326428 169.14151031013984,28.360178978326417 169.14151031013984,28.360178978326417 C131.87751663013984,136.65706681832637 98.65163063013983,236.59873185832635 121.3547360301398,244.27293649832632 C126.02436055013982,198.7227218583264 147.92494455013986,188.1894409783265 176.77971399013984,208.2959771383264 C178.67726459013983,209.6190124183264 180.99032627013986,213.26410961832642 179.07177511013987,214.5001425783264 C177.34822915013984,215.61017217832637 174.60615603013986,216.92870733832638 173.92363783013985,218.58025137832647 C169.98453279013984,228.11450561832635 173.93413811013983,241.1843541383264 180.24480639013984,241.16635365832644 C188.95403863013985,237.69376105832634 195.50471331013983,230.81307757832644 199.45131855013983,219.81928441832633 C199.14381035013986,178.86819241832643 206.34100227013988,163.77628997832642 211.71114547013985,134.06049757832648 C170.9760592301398,139.48164213832638 152.26756035013983,138.1076054983264 152.6635709101398,130.83841165832644 C154.51762035013985,117.61105893832644 184.33991559013987,130.29539717832643 216.32376847013984,120.7731432583264 L248.46512555013987,48.402213418326426 C253.78426739013986,47.29818397832639 258.20488527013987,49.48974241832639 262.0509878301399,53.77685673832639 C260.99945979013984,73.45738153832644 255.0143001901398,94.37093921832638 248.92863791013986,115.30849753832638 C267.6626374701398,115.53350353832639 286.1611307501398,114.05446409832643 304.6551239101399,112.54392381832645 C322.7981077101398,73.75288941832639 342.61363611013985,47.608692258326414 354.1549438701398,49.740249098326444 C380.01863355013984,54.51337637832637 379.9826325901398,78.73602229832642 375.0220003101398,108.26580973832642 C381.15866395013984,107.50378941832639 391.5224403101398,110.78737697832639 390.91492411013985,113.70645481832639 C390.23690603013983,116.96754177832639 370.43037787013986,119.09309845832638 370.43037787013986,119.09309845832638 C368.0108133501398,137.29758389832637 348.9003037501398,163.2362755783264 326.9577186301398,189.93698757832635 C325.7486863901399,193.2055747383265 331.42183767013984,195.28313013832644 334.42041763013987,197.50768945832647 L334.22091231013985,219.64677981832642 C337.80300783013985,225.23442881832648 340.26307343013985,225.4894356183264 341.48860611013987,219.8837861383264 C345.62421639013985,197.05017725832636 364.29521427013987,194.2481025383264 383.55572787013983,192.26054953832636 L391.45793859013986,186.16138689832644 C401.1646974301399,187.84443177832645 404.3057811901399,187.28491685832637 410.6359499901398,191.49252905832645 C416.8341152701398,195.61163889832642 417.13112319013976,198.29371041832644 420.00519983013976,201.0027826583264 C422.25525983013983,203.12383921832634 421.7362459901399,211.47006177832645 421.7362459901399,211.47006177832645 C436.5101399501399,187.2279153383264 449.53048715013983,173.51754973832635 461.7183121501399,162.75926285832645 C468.3424887901399,160.4507012983264 474.79716091013984,169.51994313832643 476.0421941101398,173.7215551783264 C475.5501809901399,181.9852755383265 470.6195495101398,198.62221917832642 467.40946391013983,212.01457629832635 C464.79789427013986,222.61235889832642 466.3699361901399,225.37693261832646 476.06769479013985,211.9065734183264 C476.06769479013985,211.9065734183264 520.3878766301399,152.9745019383265 528.3185881101399,142.86423233832647 C529.6281230301398,141.19468781832643 532.9447114701399,140.7041747383264 534.8512623101399,141.81420433832636 C536.9918193901399,143.05773749832633 541.1589305101398,150.33443153832638 541.1589305101398,150.33443153832638 L539.2463795101398,161.69723453832648 C539.2463795101398,161.69723453832648 504.65245703013983,260.9863821783265 539.7788937101399,262.8839327783264 C553.1457501501399,263.60695205832644 570.5972155101399,248.00503601832645 576.0933620701398,247.6630268983265 C580.5634812701398,247.3840194583264 575.5518476301398,258.3433116983265 572.2232588701398,260.7598761383265 C559.2869139101399,270.1501265383264 547.4215975101398,278.5998518583265 535.5337805101399,275.36276553832636 C505.1969715501398,267.1035452983265 508.63356319013985,222.97836865832642 522.0124199501399,173.18904097832637 L520.3578758301398,172.48252213832643 C519.5493542701399,170.2639629783264 478.3297551101398,230.0180563783265 468.14148343013983,243.5079160983264 C464.75739319013985,247.9855354983265 454.6966249101398,243.08940493832642 453.67959779013984,234.88268609832642 C451.79704759013987,219.69178101832642 453.3345885901399,204.71988177832645 458.2187188301399,191.39052633832648 C458.8082345501399,189.7839834983264 460.65478379013985,185.07535793832642 456.82818175013983,187.08241145832642 C453.95260507013984,188.5914516983264 448.1429501501399,193.3945797783265 440.7912541101399,208.22547525832647 C436.10512915013976,217.67722729832644 420.8257217101399,237.0322434183264 420.8257217101399,237.0322434183264 C420.5467142701399,241.52486321832635 419.28668067013984,244.7364488583264 415.68508463013984,244.8834527783264 L407.50686655013976,244.7964504583265 C404.50228643013986,243.06690433832637 403.72676575013986,240.80334397832644 403.8077679101399,238.33427813832645 L401.76321339013987,236.1292193383265 C401.3432021901399,238.77979001832637 367.22479239013984,245.99348237832646 354.9169641901399,235.87421253832645 C327.0042198701399,240.56633765832646 324.82766183013985,233.3331447783264 320.26154007013986,217.40271997832645 C319.80252783013987,215.80217729832634 319.14701035013985,213.52061645832646 316.9929529101399,213.11260557832634 C316.9929529101399,213.11260557832634 286.3021345101398,248.9845621383265 277.41589755013985,256.1487531783264 C276.24436631013987,257.0952784183264 266.08009527013985,257.49428905832644 263.3785232301399,256.4187603783264 C261.04746107013983,255.49023561832644 259.97493247013983,249.70608137832642 259.97493247013983,249.70608137832642 L255.21530555013987,249.44507441832639 C231.63467675013987,267.6525599383265 215.07423515013988,262.23141537832635 203.3169216301398,240.6428396983265 C186.28696751013985,258.36581229832643 174.79516107013984,257.6937943783264 165.04340103013982,247.4755218983264 C152.62456987013985,266.8470384583263 139.19171167013985,265.5810046983264 125.33434215013983,255.6837407783264 C103.27775399013979,252.7256618983265 99.41815107013986,234.84968521832639 103.24925323013986,210.6675403783264 C107.67737131013985,177.53315681832646 117.71113887013985,142.60322537832644 130.4509785901398,106.79277045832646 C139.89973055013985,80.3830662183264 149.06047483013987,53.985362298326436 154.24311303013985,27.757162898326442 C127.08038871013986,74.17140057832643 97.56410163013982,121.75566945832645 70.77188719013982,168.27791001832645 C70.54538115013982,168.66942045832639 70.3128749501398,169.05493073832645 70.08336883013983,169.44494113832639 C55.20147199013984,234.5751778983265 44.57068851013982,256.9677750183264 35.076935350139834,254.99522241832642 C18.05898155013982,250.8551120183264 41.71611239013983,202.1953144583265 58.77006715013981,167.09587849832633 C74.87899671013982,118.7885903383264 86.17429791013983,73.51288301832642 86.04529447013981,56.42142725832639 C69.62435659013984,70.45130137832643 34.005906790139804,128.41434701832645 13.060848270139829,165.38733293832638 C2.688071670139821,171.10098529832635 0.8310221501398161,166.5273633383265 -9.86017312243348e-9,160.71620837832643 zM213.83070199013986,223.40588005832637 L243.78200067013984,129.6218792183264 C263.5975290701399,125.87177921832642 281.5470077101398,125.71277497832648 298.4014571501399,125.3362649383264 C282.6270365101399,160.0846915383264 270.28020727013984,212.47808865832644 259.0509078301398,229.40153993832644 C248.64063023013983,245.08895825832633 210.51111347013983,263.82595789832635 213.83070199013986,223.40588005832637 zM136.80814811013983,238.9042933383264 C135.03210075013982,221.6673336983264 149.29748115013984,208.00496937832645 157.17719127013987,211.1790540183265 C162.28332743013982,211.24505577832645 152.72807263013982,224.65391333832645 136.80814811013983,238.9042933383264 zM374.5974889901399,229.6445464183264 C366.51077335013986,229.1420330183264 367.80680791013987,226.91897373832649 371.68741139013986,224.2219018183264 C377.2225589901399,220.18679421832644 382.5477009901399,213.80712409832643 385.59878235013986,207.7994638983264 C388.48035919013984,204.82188449832643 391.5434408701399,204.72888201832643 396.53257391013983,204.48137541832648 C402.7382393901398,204.17536725832633 405.2538064701399,205.21189489832636 405.37080959013986,210.40803345832637 C400.5121800301399,224.83091805832646 389.73439263013984,230.47106845832639 374.5974889901399,229.6445464183264 zM359.00307315013987,218.5112495383264 C364.1347099901398,216.58069805832633 369.66235739013985,210.95104793832638 370.15587055013987,208.00196929832646 C370.40487719013987,206.50642941832643 367.7363060301399,207.05244397832644 366.2062652301399,207.7994638983264 L362.1306565501398,211.47906201832643 C357.9035438301398,215.16016017832635 357.4580319501399,217.25421601832636 359.00307315013987,218.5112495383264 zM287.3386621501399,210.1695270983264 C284.96259879013985,211.5855648583264 283.29005419013987,211.27505657832648 283.81656823013986,205.5659043383264 C293.3268218301398,177.9261672983264 303.3920902301399,150.27442993832642 316.1304299101398,122.56269097832643 C329.9817992701399,120.67264057832642 343.6306632301399,120.12062585832643 356.00299315013984,121.46616173832638 C345.35570923013984,151.75046929832638 317.59596899013985,183.25130929832642 287.3386621501399,210.1695270983264 zM215.13123667013986,175.15559341832636 C212.78817419013984,169.9444544583264 222.71693895013988,138.86212561832644 225.3900102301398,131.66043357832643 C226.05902807013985,129.8528853783264 231.60467595013984,130.06739109832642 231.16216415013986,131.9424410983264 C229.45361859013985,139.19213441832642 218.52882727013986,175.45260133832642 215.13123667013986,175.15559341832636 zM238.72236575013983,99.01356301832641 C239.69289163013985,97.66052693832643 243.5224937501398,97.57952477832646 243.70699867013985,99.3810728183264 C244.12550983013983,103.48368221832641 236.40330391013987,119.54461049832639 236.40330391013987,119.54461049832639 C232.36219615013982,121.78417021832638 231.65417727013988,119.76211629832642 230.8621561501398,117.29155041832644 C232.06668827013988,113.75445609832639 236.58180867013988,101.99864261832641 238.72236575013983,99.01356301832641 zM321.68657807013983,111.26588973832645 C328.25375319013983,92.75989625832642 349.8528291501398,63.887126338326425 356.3975036701398,63.71162165832641 C362.9421781901398,63.53611697832639 368.45332515013985,73.4093802583264 360.95462519013984,110.21286165832646 L321.68657807013983,111.26588973832645 z" style="stroke:black;stroke-width:0.13px;" stroke-width="0" id="svg_2" class="" fill="#ffffff" fill-opacity="1"/>
        <g stroke-width="0" id="svg_3" class="" fill="#ffffff" fill-opacity="1">
            <path d="M785.2138237052561,125.7009708436292 C785.7043367852561,121.90736968362921 787.6078875452562,120.30532696362911 791.578493425256,121.9088697236291 C801.4157557452561,126.11198180362908 805.8933751452561,131.47912492362912 800.751238025256,138.93732380362917 C790.172955945256,142.60042148362913 785.3803281452562,137.60978840362918 785.2138237052561,125.7009708436292 z" style="stroke:black;stroke-width:0.13px;" stroke-width="0" id="svg_4" fill="#ffffff" fill-opacity="1"/>
            <path d="M610.5326656652561,120.68633712362919 C633.0272655052561,89.55750704362913 655.0118517452562,60.20472432362914 679.884014985256,30.874442203629144 C684.4606370252561,25.74880552362913 696.1489487052562,34.42953700362915 694.8619143852561,41.75123224362915 C685.3531608252562,95.80817372362912 670.6692692652562,148.62158204362913 669.8112463852561,175.76180576362913 C689.5052715452562,145.0784875636291 709.5098049852561,93.41710996362917 726.6432618652561,45.135322483629125 C727.3797815052561,40.462697883629176 729.0928271852562,37.97563156362912 732.1649091052561,38.532146403629156 L741.9586702652562,45.99034528362915 C727.1397751052561,92.64908948362915 713.6889164252561,139.0108257636291 709.3102996652561,183.3895091636291 C709.5218053052561,190.61370180362917 710.8373403852562,191.47922488362906 713.4849109852562,184.6720433636292 L778.7366509852562,30.569934083629164 C781.1052141452561,25.199790883629134 783.5952805452561,24.07176080362916 786.3253533452562,25.217791363629146 L792.0465059052561,29.92191680362913 C794.2770653852562,32.28897992362914 795.4965979052562,34.998052163629154 793.5540461052561,38.779653003629164 C769.8039127852561,91.0365464836292 751.3009193852561,141.90890304362915 754.2019967452562,188.70565092362915 C755.3615276652561,199.97995156362913 758.8281201052561,209.33570104362911 763.2352376252561,211.0832476436292 C768.5813801852562,209.36120172362916 775.9330762252562,198.31790724362918 785.0218185852561,185.75807232362922 C786.8668677852561,176.78783312362918 788.4299094652562,167.82359408362913 789.5639397052561,158.87135536362916 C792.8370269852561,155.85177484362907 795.3255933452562,152.99419864362915 797.2651450652562,154.5182392836291 L804.898848625256,162.12044200362914 C807.2809121452561,167.4755848036291 806.7918991052561,175.20079080362916 799.3907017452563,192.0642404836292 C798.0001646652562,197.59488796362916 797.3881483452561,202.06350712362917 799.611207625256,202.66352312362915 C807.6769227052562,197.69539064362914 814.3641010252561,190.17419008362913 821.2897857052561,183.09400128362915 C818.354207425256,159.9933852836291 828.5154783852561,152.70919104362906 844.6319081452561,152.61618856362918 C857.9312627852561,123.02189940362916 869.3780680252561,149.48860516362913 884.6709758252562,168.32610748362913 C885.3369935852561,173.58974784362908 883.5204451452562,176.30782032362913 876.9892709852562,174.1837636836292 L853.0366322652561,167.02557280362907 C848.2485045852561,171.14768272362915 843.7168837452562,177.5993547636292 839.2242639452561,184.40953636362917 C836.8977019052561,192.57275404362917 843.9883909852562,198.07340072362922 859.3548007452561,201.2339850036292 C869.4815707852562,200.18095692362908 878.7758186252561,199.6799435636292 889.4411030252561,190.67970356362912 C902.846960505256,129.14206260362914 930.0426857052562,58.08216772362914 963.412575545256,58.43167704362918 C977.7649582652562,63.306807043629135 984.5766399052561,76.64066260362915 986.0496791852561,88.36797532362914 C989.0677596652561,112.37911560362915 984.8961484252561,137.48828516362914 950.243724385256,171.27968624362916 C957.3284133052562,180.09842140362912 960.5669996652562,189.2291648836292 960.4979978252561,198.1229020436292 L974.4618701852562,189.62517544362913 L986.2341841052562,189.06866060362916 C986.2341841052562,189.06866060362916 1010.7298373052563,179.61090840362908 1016.8320000252561,179.63340900362914 C1020.5971004252563,179.6469093636291 1021.1506151852561,183.6160152036291 1022.842660305256,189.20066412362917 L1022.598153785256,214.66084304362914 L1030.9158755852561,216.35588824362912 C1028.886321465256,198.97192468362914 1046.958803385256,178.34637468362916 1062.8532272252562,182.72349140362917 C1077.0301052652562,186.6280955236291 1071.2234504252563,205.52859952362917 1065.4527965452562,217.76592584362913 L1076.2200836652562,217.31741388362911 C1076.2005831452561,202.70102412362917 1079.937182785256,134.39520268362912 1143.6288811852562,95.78717316362912 C1148.990024145256,92.38508244362913 1153.526145105256,92.49308532362909 1157.087240065256,96.73819852362914 C1160.0693195852562,100.2947933636292 1160.2673248652561,110.57606752362915 1159.317799545256,114.78667980362917 C1146.213450105256,172.91622988362906 1108.469443625256,218.2354383636291 1090.680469265256,226.92066996362917 C1088.6464150252561,242.20757760362915 1092.0740064252561,250.2492920436291 1102.595286985256,249.58327428362918 C1104.4553365852562,249.46627116362913 1104.236330745256,260.2005574036291 1102.613287465256,260.2380584036291 C1085.772338385256,260.63406896362915 1077.7081233452561,251.11931524362922 1078.3831413452563,231.53929312362925 C1065.3102927452562,233.17283668362916 1055.059019385256,233.46534448362922 1046.1007805052561,231.34728800362916 C1033.2754385052563,231.15978300362917 1015.1564553452561,226.47815816362913 1015.1564553452561,226.47815816362913 C992.858360745256,234.07586076362918 970.1222544652562,217.9219300036291 973.6323480652561,210.75173880362922 L968.277205265256,210.5777341636292 C961.2435177052562,219.41146972362912 951.8247665452561,223.74808536362912 946.6391282652562,218.8819556036292 C944.1940630652562,216.58539436362912 940.6629689052561,208.75518556362908 947.2766452652561,199.29293324362914 L947.1191410652561,186.8546015636291 C945.9686103852562,182.4789848836292 942.1150076252561,180.7509388036292 936.9773706252561,181.85196816362918 C920.3119262252562,193.3857757236292 907.2375775852561,203.0085323236292 896.567793065256,222.6665565236292 C896.0697797852561,228.80772028362912 881.264384985256,226.07614744362922 881.4383896252561,220.88000888362922 C881.6978965452562,217.63092224362913 882.1119075852562,214.02032596362915 883.0044313852561,210.84024116362912 C850.0440524652561,219.8809822436292 840.2712918652561,206.98663840362906 828.624981305256,196.36185508362905 C807.4969179052562,220.1524894836291 793.5330455452561,223.5830809636292 784.1892963852562,214.05932700362905 C782.7642583852561,213.66331644362913 781.373721305256,213.60331484362905 780.1496886652562,213.4878117636291 C767.7023567452562,229.40473620362923 758.3571075452562,224.59560796362916 750.0063848652561,213.16380312362912 C741.4711572652561,199.92595012362915 741.319653225256,177.24384528362918 741.4846576252561,153.9752248036291 L710.9618437052561,226.01914592362914 C699.7115437052562,227.4891851236291 695.4544301852562,223.8935892436291 695.4154291452561,214.87684880362917 C695.1049208652561,192.96726456362921 697.0144717852562,170.88667576362923 699.036525705256,148.79708672362915 C685.2376577452561,177.6053549236292 671.8963019852562,206.82313404362912 659.8104797052562,234.9323836036292 C656.1458819852561,240.93104356362915 641.2669852252561,238.79948672362912 645.4625971052562,226.75116544362913 C651.4372564252561,209.59070784362916 672.1633091052562,93.68261704362914 676.7579316252561,60.69823748362916 C677.107440945256,58.1901706036291 677.8079596252562,55.33709452362916 677.9489633852561,54.25556568362913 C659.4399698252562,77.09217464362916 643.2755387852561,100.90380960362916 627.6841230252561,124.95245088362913 C616.385821745256,134.85421492362912 609.1196279852561,129.70007748362912 610.5326656652561,120.68633712362919 zM1045.6237677852562,216.52089264362917 C1053.9999911452562,212.9867984036291 1059.1091273852562,202.41751656362908 1057.5700863452562,197.27687948362916 C1046.6692956652562,199.5404398436292 1043.237204145256,214.28133292362918 1045.6237677852562,216.52089264362917 zM1089.6064406252563,211.83326764362914 C1084.8213130252561,176.0948146436292 1122.8578273052563,126.19898412362909 1146.1444482652562,111.00807904362915 C1150.5920668652561,122.52838624362914 1121.1252811052561,186.3700886436291 1089.6064406252563,211.83326764362914 zM906.6375615852562,183.91752324362915 C909.0151249852561,154.91574988362913 919.3519006252561,122.45038416362911 949.5672063452562,81.33428776362916 C966.5701597452562,63.15680304362911 970.6727691452561,72.47505152362919 974.4003685452562,82.59582140362915 C982.137574865256,116.52672620362915 962.358047425256,142.2074110036292 936.353353985256,166.0205460036292 C926.3030859852563,168.5316129636292 916.3968218252562,174.4972720436292 906.6375615852562,183.91752324362915 z" style="stroke:black;stroke-width:0.13px;" stroke-width="0" id="svg_5" fill="#ffffff" fill-opacity="1"/>
        </g>
        <path d="M1514.5168860301399,192.12890882809393 C1521.14706283014,196.66652982809387 1523.4571244301399,204.15322946809385 1523.7271316301399,212.17544338809387 C1528.72226483014,210.2478919880939 1530.8373212301399,193.26743918809393 1540.9775916301398,184.53270626809388 C1546.8877492301401,182.49865202809383 1555.22797163014,187.65428950809383 1550.9678580301397,194.88598234809388 L1542.7176380301398,209.75887894809387 C1543.7076644301399,211.86493510809385 1548.8978028301399,210.3303941880938 1557.07302083014,207.20731090809386 C1571.75841243014,190.45936430809388 1585.94879083014,174.10142810809384 1595.1890372301398,152.3178472280938 C1595.1890372301398,152.3178472280938 1599.1641432301399,151.53482634809393 1600.69418403014,152.56685386809386 C1602.5542336301398,153.83438766809388 1606.3943360301398,159.9305502280938 1606.3943360301398,159.9305502280938 C1603.3792556301398,173.91692318809385 1602.6742368301398,186.68526366809385 1602.49423203014,199.17759678809387 C1644.9903652301398,186.82176730809385 1683.42139003014,179.98758506809384 1721.62740883014,188.6623163880938 C1724.5974880301396,189.9463506280938 1724.6124884301398,193.5059455480939 1706.26699923014,194.08196090809383 C1664.29588003014,195.40349614809384 1634.0250728301398,201.04064646809388 1599.2841464301398,214.29649994809392 C1593.6889972301396,278.535712948094 1569.7333584301398,311.47059118809386 1533.9874052301398,298.84025438809385 C1506.2066644301399,282.9473305880938 1516.8569484301397,250.4279634280939 1549.9928320301399,226.06131366809382 C1549.4228168301397,226.01331238809394 1549.61782203014,224.73077818809384 1549.0778076301397,224.72027790809386 C1542.2676260301398,224.6032747880938 1538.9525376301397,224.41426974809383 1537.4824984301397,222.3232139880938 C1525.2721728301399,232.62848878809382 1516.66194323014,232.9569975480938 1510.4367772301398,226.6643297480939 C1478.5909280301398,241.86423506809388 1460.6954508301399,243.41377638809377 1465.0005656301398,223.23073818809394 C1463.69553083014,223.67174994809386 1462.18049043014,222.82272730809382 1460.9654580301396,223.19173714809392 C1442.63496923014,228.70588418809393 1433.5147260301399,227.18634366809385 1434.86476203014,214.45850426809386 C1417.3742956301398,229.21439774809392 1400.7688528301398,231.2274514280939 1399.77882643014,221.81770050809382 C1399.77882643014,221.81770050809382 1399.74882563014,210.85540818809386 1398.9688048301398,205.44926402809392 C1398.09878163014,199.47010458809382 1394.5736876301398,185.94424390809388 1394.5736876301398,185.94424390809388 L1392.2186248301398,185.82124062809385 C1392.2186248301398,185.82124062809385 1383.84840163014,205.65626954809386 1380.7133180301398,208.71035098809386 C1373.1201155501399,216.1250487080938 1365.0589005901397,231.70896426809384 1365.0589005901397,231.70896426809384 C1358.0057125101398,243.29377318809384 1346.07439435014,244.2717992680939 1350.82952115014,226.50682554809384 C1354.1986109901397,216.8180671880939 1356.92868379014,207.04680662809392 1353.9541044701398,196.57952750809386 L1350.0675008301398,201.49665862809388 C1347.3509283901399,211.3909224680939 1344.5398534301398,213.65598286809382 1336.8626487101399,220.14815598809378 C1334.5540871501398,222.80472682809386 1333.4800585101398,225.7118043480939 1333.7005643901398,228.87838878809384 C1330.92249031014,235.89407586809386 1321.01472611014,235.09305450809393 1319.87019559014,228.92939014809394 L1316.8491150301397,229.21139766809392 C1302.4397307901397,235.31506042809383 1290.72591843014,235.09305450809393 1284.39424959014,227.72485802809388 C1215.8574219901398,246.48135818809385 1190.9582580301399,190.61836854809394 1225.62568247014,123.47807818809383 C1258.9085699901398,59.01835930809386 1297.90810995014,48.44757742809384 1330.6209822701398,75.34779474809386 L1330.89248951014,61.526426188093865 C1334.56158735014,56.04828010809388 1339.1832105901399,58.9133565080939 1344.1093419501399,64.44400398809387 L1343.85283511014,91.8902358680939 L1346.42390367014,96.42935690809395 C1349.10447515014,107.78615974809395 1336.4951389101398,109.9507174680939 1333.3840559501398,98.8159205480938 C1326.7988803501398,77.63985586809383 1312.55300047014,73.7817529880939 1296.86258207014,73.77425278809392 C1254.0949416301398,78.18287034809384 1222.60160183014,144.20863098809377 1222.4995991101398,178.73955178809388 C1218.8245011101399,222.59322118809382 1252.9849120301399,228.16286970809392 1281.22166499014,216.61106166809395 C1294.78052655014,190.52536606809394 1324.51131935014,174.3504347480939 1335.7916201501398,191.16888322809382 L1341.5622740301399,191.37588874809387 C1345.0018657501398,186.72876482809386 1349.1464762701398,182.3321475880939 1353.8926028301398,178.15003606809387 C1359.08424127014,173.9394237880939 1363.48235855014,178.79355322809386 1367.9569778701398,184.16969658809387 L1367.86547543014,200.34312786809392 L1371.05456047014,200.0191192280938 C1378.1632500301398,186.5742607080939 1387.68850403014,173.24640530809393 1389.83356123014,161.21008434809391 C1390.3885760301398,159.99505194809387 1390.9435908301398,159.05152678809395 1391.5136060301397,158.3405078280939 C1394.5886880301398,154.5079056280938 1399.64382283014,158.04499994809385 1402.9589112301398,162.1776101480939 C1403.72393163014,163.1301355480939 1403.4089232301399,164.24466526809385 1403.48392523014,166.2772194680939 L1403.91893683014,173.44591062809388 L1412.03415323014,212.28044618809395 C1412.03415323014,212.28044618809395 1414.6592232301398,213.3859756680938 1417.3592952301399,212.0299395080939 C1430.5896480301396,205.3697619080939 1442.70997123014,179.81058034809394 1445.2300384301398,166.5082256280939 C1441.4199368301397,161.27758614809386 1438.4048564301397,156.07994754809386 1436.30480043014,150.91980994809387 C1433.3197208301399,135.7229047080939 1440.96992483014,138.7709859880938 1449.91016323014,144.01212574809392 C1457.4553644301398,150.8148071480939 1459.0904080301398,157.0234727080939 1459.88542923014,164.33316762809386 L1485.91112323014,180.0970879880938 C1495.7513856301398,186.36875522809396 1490.38124243014,190.7743727080939 1484.1410760301399,195.07198730809387 L1463.87553563014,207.0588069480939 C1455.56531403014,212.09594126809384 1458.9554044301399,211.54842666809395 1465.0605672301397,209.6943772280938 C1479.2209448301398,204.57024058809384 1492.93131043014,198.73808506809382 1506.1316624301398,192.12890882809393 L1514.5168860301399,192.12890882809393 zM1582.88870923014,220.54116646809393 L1586.5938080301398,220.01465242809388 C1586.5938080301398,220.01465242809388 1580.5936480301398,262.84829462809387 1573.12344883014,271.74503186809386 C1544.63768923014,305.65043598809393 1524.37214883014,287.27044586809393 1533.79240003014,265.54236646809386 C1542.22262483014,246.05984694809388 1562.4431640301398,231.92647006809398 1582.88870923014,220.54116646809393 zM1485.1761036301398,222.27371266809382 C1485.3261076301396,223.53524630809386 1486.67614363014,224.09176114809384 1491.3412680301396,222.68622366809382 C1497.76143923014,220.58766770809393 1501.57154083014,217.1330755880938 1503.8366012301399,212.86996190809396 C1504.6766236301398,209.41986990809392 1503.6715968301398,208.4208432680939 1501.96155123014,208.3818422280939 C1495.57138083014,212.37794878809382 1489.96123123014,216.9875717080938 1485.1761036301398,222.27371266809382 zM1303.21825155014,219.75514550809385 C1301.2216983101398,216.9020694280939 1323.19878435014,194.17496338809383 1322.83727471014,210.046886628094 C1325.7773531101398,214.42250330809384 1305.7938202301398,223.43324358809377 1303.21825155014,219.75514550809385 zM1572.7184380301396,214.0369930280939 C1572.10342163014,212.95996430809384 1571.8484148301397,211.6954305880938 1571.9834184301396,210.22689142809395 C1578.88360243014,203.41670982809387 1589.3088804301399,188.47481138809394 1588.64886283014,187.54628662809387 L1591.25893243014,186.8457679480939 C1591.0039256301397,193.0949345880938 1591.0489268301399,199.7551121880938 1590.3439080301398,205.12675542809393 C1585.52877963014,206.88330226809387 1578.7185980301397,210.72640474809396 1572.7184380301396,214.0369930280939 zM1440.39990963014,207.2748127080938 C1447.21009123014,197.8320609080938 1452.5802344301399,187.52528606809392 1456.0453268301399,176.06498046809384 C1462.4804984301397,178.73805174809388 1468.90066963014,181.43212358809387 1474.0458068301398,186.6192619080939 C1466.2155980301397,194.06546046809387 1453.15024963014,202.27667942809387 1440.39990963014,207.2748127080938 z" style="stroke:black;stroke-width:0.13px;" stroke-width="0" id="svg_6" class="" fill="#ffffff" fill-opacity="1"/>
    </g></svg>