<?xml version="1.0" encoding="UTF-8" standalone="no"?>
<!DOCTYPE svg PUBLIC "-//W3C//DTD SVG 1.1//EN" "http://www.w3.org/Graphics/SVG/1.1/DTD/svg11.dtd">
<svg width="100%" height="100%" viewBox="0 0 1700 298" version="1.1" xmlns="http://www.w3.org/2000/svg" xmlns:xlink="http://www.w3.org/1999/xlink" xml:space="preserve" xmlns:serif="http://www.serif.com/" style="fill-rule:evenodd;clip-rule:evenodd;stroke-linejoin:round;stroke-miterlimit:2;">
    <g transform="matrix(1,0,0,1,-11.5,-2.01567)">
        <g id="svg_2" transform="matrix(1.00978,0,0,1.01367,310,4)">
            <path d="M-0,160.716C35.974,105.875 78.712,31.438 93.482,38.047C98.173,40.315 104.559,37.212 97.917,71.918C95.815,82.899 92.603,97.568 87.371,117.511C87.371,117.511 142.07,22.153 155.932,3.04C158.629,-0.679 168.456,-1.26 170.538,2.835C172.833,7.352 169.142,28.36 169.142,28.36C131.878,136.657 98.652,236.599 121.355,244.273C126.024,198.723 147.925,188.189 176.78,208.296C178.677,209.619 180.99,213.264 179.072,214.5C177.348,215.61 174.606,216.929 173.924,218.58C169.985,228.115 173.934,241.184 180.245,241.166C188.954,237.694 195.505,230.813 199.451,219.819C199.144,178.868 206.341,163.776 211.711,134.06C170.976,139.482 152.268,138.108 152.664,130.838C154.518,117.611 184.34,130.295 216.324,120.773L248.465,48.402C253.784,47.298 258.205,49.49 262.051,53.777C260.999,73.457 255.014,94.371 248.929,115.308C267.663,115.534 286.161,114.054 304.655,112.544C322.798,73.753 342.614,47.609 354.155,49.74C380.019,54.513 379.983,78.736 375.022,108.266C381.159,107.504 391.522,110.787 390.915,113.706C390.237,116.968 370.43,119.093 370.43,119.093C368.011,137.298 348.9,163.236 326.958,189.937C325.749,193.206 331.422,195.283 334.42,197.508L334.221,219.647C337.803,225.234 340.263,225.489 341.489,219.884C345.624,197.05 364.295,194.248 383.556,192.261L391.458,186.161C401.165,187.844 404.306,187.285 410.636,191.493C416.834,195.612 417.131,198.294 420.005,201.003C422.255,203.124 421.736,211.47 421.736,211.47C436.51,187.228 449.53,173.518 461.718,162.759C468.342,160.451 474.797,169.52 476.042,173.722C475.55,181.985 470.62,198.622 467.409,212.015C464.798,222.612 466.37,225.377 476.068,211.907C476.068,211.907 520.388,152.975 528.319,142.864C529.628,141.195 532.945,140.704 534.851,141.814C536.992,143.058 541.159,150.334 541.159,150.334L539.246,161.697C539.246,161.697 504.652,260.986 539.779,262.884C553.146,263.607 570.597,248.005 576.093,247.663C580.563,247.384 575.552,258.343 572.223,260.76C559.287,270.15 547.422,278.6 535.534,275.363C505.197,267.104 508.634,222.978 522.012,173.189L520.358,172.483C519.549,170.264 478.33,230.018 468.141,243.508C464.757,247.986 454.697,243.089 453.68,234.883C451.797,219.692 453.335,204.72 458.219,191.391C458.808,189.784 460.655,185.075 456.828,187.082C453.953,188.591 448.143,193.395 440.791,208.225C436.105,217.677 420.826,237.032 420.826,237.032C420.547,241.525 419.287,244.736 415.685,244.883L407.507,244.796C404.502,243.067 403.727,240.803 403.808,238.334L401.763,236.129C401.343,238.78 367.225,245.993 354.917,235.874C327.004,240.566 324.828,233.333 320.262,217.403C319.803,215.802 319.147,213.521 316.993,213.113C316.993,213.113 286.302,248.985 277.416,256.149C276.244,257.095 266.08,257.494 263.379,256.419C261.047,255.49 259.975,249.706 259.975,249.706L255.215,249.445C231.635,267.653 215.074,262.231 203.317,240.643C186.287,258.366 174.795,257.694 165.043,247.476C152.625,266.847 139.192,265.581 125.334,255.684C103.278,252.726 99.418,234.85 103.249,210.668C107.677,177.533 117.711,142.603 130.451,106.793C139.9,80.383 149.06,53.985 154.243,27.757C127.08,74.171 97.564,121.756 70.772,168.278C70.545,168.669 70.313,169.055 70.083,169.445C55.201,234.575 44.571,256.968 35.077,254.995C18.059,250.855 41.716,202.195 58.77,167.096C74.879,118.789 86.174,73.513 86.045,56.421C69.624,70.451 34.006,128.414 13.061,165.387C2.688,171.101 0.831,166.527 -0,160.716ZM213.831,223.406L243.782,129.622C263.598,125.872 281.547,125.713 298.401,125.336C282.627,160.085 270.28,212.478 259.051,229.402C248.641,245.089 210.511,263.826 213.831,223.406ZM136.808,238.904C135.032,221.667 149.297,208.005 157.177,211.179C162.283,211.245 152.728,224.654 136.808,238.904ZM374.597,229.645C366.511,229.142 367.807,226.919 371.687,224.222C377.223,220.187 382.548,213.807 385.599,207.799C388.48,204.822 391.543,204.729 396.533,204.481C402.738,204.175 405.254,205.212 405.371,210.408C400.512,224.831 389.734,230.471 374.597,229.645ZM359.003,218.511C364.135,216.581 369.662,210.951 370.156,208.002C370.405,206.506 367.736,207.052 366.206,207.799L362.131,211.479C357.904,215.16 357.458,217.254 359.003,218.511ZM287.339,210.17C284.963,211.586 283.29,211.275 283.817,205.566C293.327,177.926 303.392,150.274 316.13,122.563C329.982,120.673 343.631,120.121 356.003,121.466C345.356,151.75 317.596,183.251 287.339,210.17ZM215.131,175.156C212.788,169.944 222.717,138.862 225.39,131.66C226.059,129.853 231.605,130.067 231.162,131.942C229.454,139.192 218.529,175.453 215.131,175.156ZM238.722,99.014C239.693,97.661 243.522,97.58 243.707,99.381C244.126,103.484 236.403,119.545 236.403,119.545C232.362,121.784 231.654,119.762 230.862,117.292C232.067,113.754 236.582,101.999 238.722,99.014ZM321.687,111.266C328.254,92.76 349.853,63.887 356.398,63.712C362.942,63.536 368.453,73.409 360.955,110.213L321.687,111.266Z" style="fill:white;"/>
        </g>
        <g id="svg_3">
        </g>
        <g id="svg_6" transform="matrix(1.04521,0,0,1.08044,-354.895,-25.2533)">
            <path d="M1514.52,192.129C1521.15,196.667 1523.46,204.153 1523.73,212.175C1528.72,210.248 1530.84,193.267 1540.98,184.533C1546.89,182.499 1555.23,187.654 1550.97,194.886L1542.72,209.759C1543.71,211.865 1548.9,210.33 1557.07,207.207C1571.76,190.459 1585.95,174.101 1595.19,152.318C1595.19,152.318 1599.16,151.535 1600.69,152.567C1602.55,153.834 1606.39,159.931 1606.39,159.931C1603.38,173.917 1602.67,186.685 1602.49,199.178C1644.99,186.822 1683.42,179.988 1721.63,188.662C1724.6,189.946 1724.61,193.506 1706.27,194.082C1664.3,195.403 1634.03,201.041 1599.28,214.296C1593.69,278.536 1569.73,311.471 1533.99,298.84C1506.21,282.947 1516.86,250.428 1549.99,226.061C1549.42,226.013 1549.62,224.731 1549.08,224.72C1542.27,224.603 1538.95,224.414 1537.48,222.323C1525.27,232.628 1516.66,232.957 1510.44,226.664C1478.59,241.864 1460.69,243.414 1465,223.231C1463.7,223.672 1462.18,222.823 1460.96,223.192C1442.63,228.706 1433.52,227.186 1434.87,214.459C1417.37,229.214 1400.77,231.227 1399.78,221.818C1399.78,221.818 1399.75,210.855 1398.97,205.449C1398.1,199.47 1394.57,185.944 1394.57,185.944L1392.22,185.821C1392.22,185.821 1383.85,205.656 1380.71,208.71C1373.12,216.125 1365.06,231.709 1365.06,231.709C1358.01,243.294 1346.07,244.272 1350.83,226.507C1354.2,216.818 1356.93,207.047 1353.95,196.58L1350.07,201.497C1347.35,211.391 1344.54,213.656 1336.86,220.148C1334.55,222.805 1330.65,221.763 1330.87,224.929C1329.39,228.656 1331.41,227.819 1330.87,224.929L1316.85,229.211C1302.44,235.315 1290.73,235.093 1284.39,227.725C1215.86,246.481 1190.96,190.618 1225.63,123.478C1258.91,59.018 1297.91,48.448 1330.62,75.348L1330.89,61.526C1334.56,56.048 1339.18,58.913 1344.11,64.444L1343.85,91.89L1346.42,96.429C1349.1,107.786 1336.5,109.951 1333.38,98.816C1326.8,77.64 1312.55,73.782 1296.86,73.774C1254.1,78.183 1222.6,144.209 1222.5,178.74C1218.83,222.593 1252.99,228.163 1281.22,216.611C1294.78,190.525 1324.51,174.35 1335.79,191.169L1341.56,191.376C1345,186.729 1349.15,182.332 1353.89,178.15C1359.08,173.939 1363.48,178.794 1367.96,184.17L1367.87,200.343L1371.06,200.019C1378.16,186.574 1387.69,173.246 1389.83,161.21C1390.39,159.995 1390.94,159.052 1391.51,158.341C1394.59,154.508 1399.64,158.045 1402.96,162.178C1403.72,163.13 1403.41,164.245 1403.48,166.277L1403.92,173.446L1412.03,212.28C1412.03,212.28 1414.66,213.386 1417.36,212.03C1430.59,205.37 1442.71,179.811 1445.23,166.508C1441.42,161.278 1438.4,156.08 1436.31,150.92C1433.32,135.723 1440.97,138.771 1449.91,144.012C1457.45,150.815 1459.09,157.023 1459.88,164.333L1485.91,180.097C1495.75,186.369 1490.38,190.774 1484.14,195.072L1463.88,207.059C1455.57,212.096 1458.95,211.548 1465.06,209.694C1479.22,204.57 1492.93,198.738 1506.13,192.129L1514.52,192.129ZM1582.89,220.541L1586.59,220.015C1586.59,220.015 1580.59,262.848 1573.12,271.745C1544.64,305.65 1524.37,287.27 1533.79,265.542C1542.22,246.06 1562.44,231.926 1582.89,220.541ZM1485.18,222.274C1485.33,223.535 1486.68,224.092 1491.34,222.686C1497.76,220.588 1501.57,217.133 1503.84,212.87C1504.68,209.42 1503.67,208.421 1501.96,208.382C1495.57,212.378 1489.96,216.988 1485.18,222.274ZM1303.22,219.755C1301.22,216.902 1323.2,194.175 1322.84,210.047C1325.78,214.423 1305.79,223.433 1303.22,219.755ZM1572.72,214.037C1572.1,212.96 1571.85,211.695 1571.98,210.227C1578.88,203.417 1589.31,188.475 1588.65,187.546L1591.26,186.846C1591,193.095 1591.05,199.755 1590.34,205.127C1585.53,206.883 1578.72,210.726 1572.72,214.037ZM1440.4,207.275C1447.21,197.832 1452.58,187.525 1456.05,176.065C1462.48,178.738 1468.9,181.432 1474.05,186.619C1466.22,194.065 1453.15,202.277 1440.4,207.275Z" style="fill:white;"/>
        </g>
    </g>
</svg>
